<svg width="49" height="35" viewBox="0 0 49 35" fill="none" xmlns="http://www.w3.org/2000/svg">
<path d="M42.9703 18.0752C44.7395 17.8335 46.4115 16.5173 47.0882 14.691C48.1493 11.8281 46.2048 7.78819 43.1205 8.33445C40.7189 8.76017 38.4127 13.277 39.0207 15.6805C39.4831 17.5091 41.3571 18.2953 42.9703 18.0746V18.0752Z" fill="#FFCCD8"/>
<path d="M43.3488 19.4478C45.8909 19.0687 48.1796 16.8656 48.6636 14.3399C49.0864 12.1333 48.4539 9.50618 46.6742 8.02056C45.7639 7.26056 44.6108 6.76555 43.4036 6.8727C42.2033 6.97928 41.2011 7.51389 40.3415 8.34901C38.7219 9.92257 37.6364 12.2858 37.5065 14.539C37.4279 15.9088 37.9264 17.3507 38.9846 18.2586C40.0719 19.1916 41.5383 19.6761 42.9709 19.4985C43.7076 19.4076 44.4321 18.9091 44.3948 18.0746C44.3639 17.3816 43.7623 16.5529 42.9709 16.6507C42.7589 16.6769 42.5463 16.6909 42.332 16.6851C42.233 16.6827 42.1334 16.667 42.0344 16.6664C41.8626 16.6653 42.1783 16.6775 42.1661 16.6856C42.1305 16.7095 41.9587 16.6466 41.9209 16.6379C41.8236 16.6158 41.7269 16.5901 41.6314 16.561C41.5802 16.5453 41.2756 16.4591 41.473 16.5144C41.6559 16.5657 41.3525 16.4544 41.2832 16.416C41.183 16.3613 41.0887 16.2826 40.9868 16.2337C40.8423 16.165 41.0776 16.3094 41.0753 16.3083C41.0392 16.2949 40.9891 16.2378 40.9611 16.2116C40.8755 16.1312 40.7952 16.0474 40.7119 15.9652C40.5302 15.7853 40.8202 16.1545 40.6845 15.9344C40.6117 15.8156 40.5418 15.6979 40.4754 15.5751C40.3514 15.3456 40.5279 15.7742 40.4568 15.5162C40.43 15.4201 40.4026 15.3241 40.377 15.2274C40.37 15.2012 40.359 15.0841 40.3467 15.0754C40.3467 15.0754 40.3782 15.4021 40.37 15.2565C40.3648 15.1604 40.3526 15.0655 40.3491 14.9694C40.3421 14.7813 40.3491 14.5932 40.3642 14.4057C40.3694 14.3463 40.3753 14.0481 40.3747 14.2781C40.3741 14.5041 40.4061 14.1215 40.4207 14.0504C40.5069 13.6294 40.6309 13.2165 40.7818 12.814C40.8144 12.7267 40.9093 12.3796 40.8109 12.7267C40.8383 12.6312 40.8959 12.5345 40.9384 12.4448C41.0415 12.227 41.1522 12.0133 41.2715 11.8036C41.3729 11.626 41.4794 11.4513 41.5924 11.2807C41.6571 11.1828 41.7258 11.0873 41.7933 10.9906C41.8178 10.9551 41.8487 10.8975 41.8819 10.8701C41.8213 10.9196 41.7223 11.0658 41.8417 10.9254C41.9762 10.767 42.1101 10.6092 42.2563 10.4607C42.321 10.3949 42.3874 10.3302 42.4555 10.2668C42.4887 10.2359 42.5225 10.205 42.5568 10.1753C42.6186 10.1212 42.7892 10.0425 42.6186 10.1165C42.4322 10.1969 42.6599 10.088 42.7187 10.0478C42.788 10.0006 42.8591 9.95577 42.9313 9.91326C43.0134 9.86492 43.0984 9.82416 43.1829 9.77931C43.3791 9.67507 42.8812 9.86783 43.1701 9.79096C43.2539 9.76825 43.3442 9.74787 43.4263 9.72108C43.6325 9.6541 43.1433 9.7333 43.4042 9.71991C43.4962 9.71525 43.5876 9.70768 43.6802 9.70768C43.7251 9.70768 43.7705 9.71117 43.8153 9.71117C44.0599 9.71117 43.8468 9.74204 43.7454 9.68963C43.8823 9.76009 44.0984 9.76068 44.2492 9.81134C44.2882 9.82415 44.3761 9.87191 44.4099 9.87074C44.4 9.87074 44.1461 9.73738 44.2649 9.81367C44.3482 9.86667 44.4431 9.9051 44.5281 9.95635C44.6143 10.0082 44.6935 10.0699 44.7786 10.1235C44.9014 10.2021 44.6615 10.0402 44.6615 10.0338C44.6615 10.0472 44.7489 10.1084 44.7605 10.1194C44.9096 10.2615 45.0401 10.4269 45.1891 10.5655C45.2986 10.6674 45.0936 10.4683 45.1059 10.4543C45.1035 10.4566 45.1798 10.5568 45.1856 10.5649C45.2363 10.6412 45.2881 10.7163 45.3365 10.7938C45.4512 10.9796 45.5374 11.177 45.6422 11.3669C45.7208 11.5101 45.5799 11.2376 45.5921 11.2428C45.6079 11.2492 45.6609 11.4204 45.6603 11.4193C45.6929 11.5084 45.7232 11.5986 45.7517 11.6895C45.8181 11.9026 45.8717 12.1199 45.9124 12.3394C45.9212 12.3866 45.9264 12.4349 45.9369 12.4815C45.9736 12.6411 45.9078 12.3394 45.9194 12.3412C45.9322 12.3429 45.9445 12.6026 45.9462 12.6283C45.9608 12.8513 45.9625 13.0761 45.9497 13.2992C45.9468 13.3469 45.9421 13.3947 45.9392 13.4424C45.9194 13.7651 45.9334 13.3947 45.9515 13.3952C45.9515 13.3952 45.8961 13.6952 45.8903 13.722C45.8455 13.9229 45.7843 14.1174 45.7173 14.3119C45.7092 14.3352 45.6329 14.5186 45.6999 14.362C45.7686 14.203 45.6626 14.4336 45.6492 14.461C45.5799 14.6013 45.5042 14.7388 45.4227 14.8727C45.3516 14.9892 45.2753 15.1016 45.1973 15.2134C45.1822 15.235 45.0599 15.3823 45.1682 15.2542C45.2928 15.1057 45.0814 15.3491 45.0569 15.3765C44.8776 15.5768 44.6819 15.7591 44.4781 15.9332C44.2783 16.1044 44.4548 15.9489 44.4967 15.9204C44.4344 15.9629 44.3732 16.0083 44.3103 16.0503C44.2009 16.1231 44.0885 16.1918 43.9731 16.2564C43.8427 16.3298 43.707 16.3921 43.5736 16.4591C43.4292 16.5313 43.6441 16.4282 43.6569 16.4236C43.5865 16.4463 43.5183 16.4754 43.4484 16.4993C43.1695 16.593 42.8841 16.6577 42.5935 16.7014C41.8545 16.8114 41.3822 17.7828 41.5988 18.4531C41.8597 19.2597 42.558 19.566 43.3506 19.4478H43.3488Z" fill="#A33F61"/>
<path d="M26.8026 5.38591C26.3559 7.13768 27.0978 9.26507 28.6528 9.94703C29.7983 10.4496 31.1727 10.0973 32.1214 9.23887C33.07 8.38046 33.621 7.0841 33.8126 5.76096C33.9669 4.6958 33.8854 3.53514 33.3111 2.65459C31.3288 -0.381885 27.4548 2.82756 26.8032 5.38533L26.8026 5.38591Z" fill="#FFCCD8"/>
<path d="M25.4293 5.00735C24.9087 7.16329 25.5976 9.65699 27.4927 10.9301C28.5077 11.6126 29.8321 11.7518 30.9991 11.4367C32.2664 11.0943 33.282 10.2522 34.0216 9.1911C34.6669 8.26513 35.0483 7.13242 35.2021 6.02068C35.385 4.69578 35.3162 3.3342 34.6605 2.13627C34.1503 1.20506 33.289 0.439823 32.2629 0.138738C31.327 -0.135558 30.3457 0.0216813 29.4646 0.393233C27.58 1.18875 25.9581 3.0238 25.4299 5.00735C25.2383 5.72658 25.6704 6.58732 26.4246 6.75912C27.1718 6.92917 27.9714 6.53491 28.1764 5.76444C28.2171 5.61185 28.2678 5.4651 28.3202 5.31659C28.4146 5.0487 28.1915 5.55886 28.2882 5.39288C28.3231 5.33348 28.3476 5.26534 28.379 5.20419C28.4571 5.05045 28.5427 4.9002 28.6341 4.75402C28.6761 4.68705 28.9521 4.36733 28.9358 4.31492C28.8979 4.36325 28.8607 4.41217 28.8228 4.46051C28.8601 4.41334 28.8985 4.36674 28.937 4.32015C28.976 4.27357 29.015 4.22814 29.0552 4.18272C29.1757 4.04644 29.3015 3.91483 29.4325 3.78903C29.5415 3.68479 29.6539 3.58346 29.7692 3.48678C30.0079 3.28761 29.8315 3.51008 29.7628 3.48853C29.7767 3.49261 29.9637 3.34702 29.98 3.33595C30.1244 3.23986 30.2729 3.15076 30.4267 3.06981C30.4767 3.0436 30.5286 3.02031 30.5781 2.99352C30.8454 2.85084 30.2607 3.10242 30.5443 3.00574C30.6852 2.95799 30.8238 2.90849 30.9688 2.87413C31.0288 2.85957 31.1063 2.85783 31.1622 2.83395C30.9124 2.86365 30.8634 2.87064 31.0149 2.85491C31.0661 2.85025 31.1173 2.84734 31.1686 2.84618C31.2321 2.84443 31.2961 2.84967 31.3596 2.84851C31.5157 2.84618 31.5553 2.94169 31.2455 2.82579C31.3619 2.86947 31.5646 2.93528 31.6875 2.94751C31.6531 2.94401 31.3753 2.78445 31.5617 2.9015C31.6292 2.94401 31.7009 2.98536 31.7702 3.02496C32.0223 3.17056 31.5384 2.7961 31.7504 3.00924C31.8139 3.0733 31.8814 3.13096 31.9431 3.19735L32.0055 3.26665C32.1021 3.38254 32.0887 3.36216 31.9647 3.2055C31.9728 3.21132 32.0771 3.3674 32.0812 3.3738C32.1231 3.43903 32.1633 3.506 32.2006 3.57356C32.232 3.63063 32.3572 3.97131 32.2501 3.65742C32.3205 3.86299 32.3817 4.06799 32.4224 4.28172C32.4387 4.36616 32.4533 4.62765 32.4312 4.31724C32.4422 4.47798 32.4551 4.63755 32.4562 4.79886C32.458 5.00153 32.4399 5.2007 32.43 5.40278C32.4114 5.79763 32.4906 5.11626 32.4207 5.49887C32.4032 5.59555 32.3875 5.6928 32.3677 5.78948C32.3246 6.00204 32.2728 6.21228 32.2105 6.4196C32.1767 6.53258 32.14 6.64439 32.0998 6.75504C32.0748 6.82493 31.9321 7.1464 32.0689 6.84939C31.9717 7.06021 31.8686 7.26637 31.7486 7.46554C31.709 7.53076 31.6683 7.59599 31.6258 7.65947C31.5943 7.70722 31.3614 8.00073 31.5792 7.73867C31.4586 7.88368 31.3334 8.02461 31.1966 8.15506C31.115 8.2331 31.0306 8.30764 30.9421 8.37811C31.2187 8.15739 30.8279 8.43751 30.7673 8.47187C30.7033 8.50914 30.6351 8.54059 30.5711 8.57786C30.2665 8.75723 30.8407 8.50798 30.5035 8.60873C30.3975 8.64018 30.295 8.67803 30.1879 8.70482C30.1704 8.70948 29.8251 8.80382 30.0557 8.74209C30.2735 8.68385 29.9549 8.74908 29.9212 8.75024C29.8128 8.75549 29.7057 8.74733 29.5974 8.74792C29.2561 8.75083 29.8757 8.83935 29.5484 8.74034C29.4454 8.7089 29.3388 8.68153 29.2345 8.65299C28.9008 8.56156 29.4611 8.79916 29.2037 8.63668C29.1216 8.58485 29.0179 8.50565 28.9288 8.47012C28.7622 8.40432 29.174 8.69958 28.962 8.49633C28.8729 8.41014 28.7809 8.32919 28.697 8.23718C28.6993 8.23951 28.5724 8.11022 28.5753 8.09566C28.7005 8.26105 28.7186 8.28144 28.6289 8.15739C28.5928 8.10498 28.5584 8.05198 28.5252 7.99782C28.4751 7.91571 28.428 7.83243 28.3843 7.74682C28.3622 7.70373 28.3406 7.66063 28.3202 7.61637C28.2754 7.5197 28.2911 7.55872 28.3668 7.73343C28.2445 7.60647 28.2003 7.24365 28.1618 7.07593C28.1473 7.01129 28.1356 6.94606 28.1216 6.88142C28.096 6.72302 28.0978 6.75097 28.128 6.9647C28.1205 6.89889 28.1141 6.8325 28.1088 6.76611C28.0943 6.56694 28.0925 6.36719 28.1042 6.16802C28.1065 6.13482 28.1088 6.10163 28.1112 6.06901C28.1275 5.90944 28.1222 5.93681 28.0948 6.15171C28.0622 6.07833 28.1548 5.84189 28.1735 5.76444C28.3482 5.04171 27.9452 4.18738 27.1788 4.01267C26.4462 3.84552 25.6145 4.2328 25.427 5.00735H25.4293Z" fill="#A33F61"/>
<path d="M13.5542 3.12218C13.0004 3.99516 12.9183 5.10865 13.1553 6.11498C13.3929 7.12074 13.9229 8.03448 14.5245 8.87484C15.0509 9.60979 15.7119 10.3477 16.6012 10.5101C17.4794 10.6703 18.3739 10.212 18.9924 9.56844C20.1024 8.41418 20.4943 6.62048 19.9673 5.10807C19.1566 2.78266 15.2996 0.369901 13.5542 3.12218Z" fill="#FFCCD8"/>
<path d="M12.3249 2.40356C10.9767 4.52921 11.7139 7.21743 13.0016 9.16721C13.6177 10.1002 14.3602 11.11 15.4062 11.591C16.646 12.1606 18.0478 12.036 19.1759 11.2562C21.1384 9.89983 22.03 7.35138 21.4372 5.04985C21.0004 3.35515 19.6173 1.85613 18.0664 1.0909C17.0712 0.59996 16.0386 0.374583 14.935 0.548129C13.8204 0.724005 12.9259 1.48516 12.3243 2.40356C11.9154 3.02786 12.1787 4.00508 12.835 4.35159C13.5467 4.72722 14.3468 4.50708 14.783 3.84085C14.8011 3.81289 14.8197 3.78494 14.8378 3.75757C14.928 3.63061 14.9112 3.64983 14.7871 3.81464C14.7836 3.80358 14.8896 3.69584 14.9077 3.67662C14.9682 3.61198 15.034 3.55432 15.0969 3.49259C15.2664 3.32487 15.0387 3.55782 15.0072 3.55782C15.0527 3.55782 15.3188 3.39417 15.3567 3.35282C15.2111 3.51123 15.0934 3.44949 15.3101 3.38136C15.3852 3.35748 15.4615 3.34292 15.5372 3.32196C15.8162 3.2445 15.1785 3.3371 15.4685 3.32836C15.5209 3.32662 15.5733 3.32137 15.6263 3.32021C15.7562 3.3173 15.8971 3.34933 16.0252 3.33826C15.6816 3.36796 15.8068 3.30565 15.9687 3.34001C16.0229 3.35166 16.0765 3.36389 16.1301 3.37786C16.2599 3.41164 16.4806 3.53743 16.6123 3.53569C16.3962 3.5386 16.3764 3.42329 16.5499 3.51297C16.6146 3.54617 16.681 3.57645 16.7456 3.61023C16.8761 3.67895 17.0036 3.75349 17.1277 3.83269C17.1777 3.86472 17.4445 4.0936 17.4946 4.08719C17.3862 4.10117 17.2645 3.8921 17.4515 4.05982C17.5289 4.1297 17.6093 4.19551 17.6856 4.26714C17.7933 4.36789 17.8976 4.47272 17.9977 4.58162C18.0373 4.62472 18.0763 4.6684 18.1148 4.71266C18.2173 4.83146 18.233 4.98055 18.1101 4.69344C18.2225 4.95609 18.4508 5.21 18.5877 5.46799C18.6424 5.57107 18.6133 5.65493 18.5393 5.34336C18.5591 5.42606 18.6028 5.51225 18.6284 5.5932C18.6849 5.77082 18.7222 5.95194 18.7606 6.13422C18.788 6.26409 18.8491 6.27748 18.7542 6.08705C18.7915 6.16159 18.7717 6.33805 18.7729 6.42075C18.774 6.49529 18.7734 6.56925 18.7717 6.6438C18.7705 6.68398 18.7362 7.11784 18.76 6.89887C18.7851 6.66476 18.735 7.02408 18.7315 7.03981C18.7164 7.1126 18.6995 7.1854 18.6814 7.25761C18.6348 7.43815 18.5748 7.61344 18.5096 7.78815C18.6325 7.45737 18.4997 7.7963 18.47 7.85454C18.4362 7.92035 18.4007 7.98616 18.3634 8.05022C18.3075 8.14689 18.2446 8.23832 18.1847 8.33267C17.9948 8.63084 18.3751 8.13699 18.1352 8.39731C18.0041 8.53941 17.8731 8.67452 17.7292 8.80381C17.4608 9.04607 17.9593 8.69432 17.6396 8.86379C17.5708 8.90048 17.5056 8.94649 17.4375 8.98434C17.3699 9.02161 17.0432 9.12295 17.3525 9.0321C17.2797 9.05364 17.2034 9.07577 17.1317 9.09907C16.8062 9.2068 17.3996 9.12877 17.0584 9.11712C16.9646 9.11421 16.6472 9.17536 16.9786 9.13809C16.8924 9.14799 16.7922 9.08393 16.7084 9.06879C16.5214 9.03501 16.9687 9.23593 16.6932 9.06121C16.6181 9.01346 16.5354 8.95872 16.4562 8.91795C16.2745 8.82419 16.6833 9.13983 16.4329 8.90165C16.2937 8.76945 16.1563 8.64191 16.0281 8.49864C15.9641 8.42701 15.9053 8.35072 15.8418 8.27909C15.7777 8.19931 15.7929 8.21969 15.8878 8.34082C15.8424 8.28026 15.7975 8.21911 15.7533 8.15737C15.4638 7.75437 15.1936 7.33623 14.9618 6.89655C14.9117 6.80104 14.8669 6.7032 14.8168 6.60827C14.6637 6.31709 14.8587 6.75794 14.7568 6.47491C14.6695 6.23206 14.5868 5.98921 14.5274 5.73763C14.5 5.62115 14.4779 5.50352 14.4581 5.38588C14.5 5.63863 14.4656 5.41441 14.4587 5.28746C14.4464 5.04868 14.4522 4.80758 14.4808 4.57056C14.4441 4.87689 14.4697 4.65849 14.4878 4.59676C14.532 4.44535 14.5693 4.29219 14.6165 4.14077C14.6421 4.05691 14.7388 3.94334 14.6095 4.15358C14.6718 4.05283 14.719 3.94276 14.7825 3.8426C15.182 3.21247 14.9345 2.24457 14.2717 1.89457C13.5688 1.52302 12.75 1.73267 12.3237 2.4053L12.3249 2.40356Z" fill="#A33F61"/>
<path d="M7.31706 19.1193C8.24943 18.9662 9.14453 18.3127 9.35477 17.3914C9.92724 14.8832 6.57745 11.2952 4.02143 11.9929C1.72398 12.6201 0.495175 15.1452 2.2219 17.0065C3.41401 18.2912 5.52336 19.4134 7.31648 19.1193H7.31706Z" fill="#FFCCD8"/>
<path d="M7.69557 20.4926C8.79334 20.3126 9.93129 19.5369 10.4321 18.5329C10.9068 17.5802 10.9405 16.5016 10.6569 15.4848C10.1619 13.712 8.82129 12.0995 7.22501 11.202C6.42658 10.753 5.47441 10.4339 4.54669 10.4851C3.43204 10.5469 2.39891 11.025 1.55564 11.7436C-0.0423836 13.1052 -0.535651 15.5518 0.674514 17.3297C1.39083 18.3827 2.47986 19.2335 3.61839 19.7885C4.91941 20.4227 6.25595 20.7069 7.69498 20.4932C8.43401 20.3837 8.90631 19.4117 8.68967 18.7414C8.42819 17.9342 7.73051 17.6291 6.9379 17.7467C7.32984 17.6885 6.97518 17.7356 6.89772 17.7391C6.79115 17.7438 6.68457 17.7444 6.578 17.7409C6.48948 17.738 6.33806 17.7514 6.25537 17.7176C6.28507 17.7298 6.58382 17.7793 6.31011 17.7217C6.09172 17.6757 5.87624 17.6291 5.6631 17.5633C5.59146 17.5411 5.51983 17.5178 5.44937 17.4928C5.38298 17.4695 4.93746 17.2721 5.26242 17.4258C4.88447 17.2465 4.51932 17.0519 4.17165 16.8184C4.07847 16.7561 3.9882 16.6909 3.89735 16.6256C3.67954 16.4696 3.88687 16.6268 3.92414 16.646C3.72322 16.5412 3.52929 16.3077 3.37089 16.1475C3.31032 16.087 3.2515 16.0246 3.19443 15.9612C3.18278 15.9483 3.17113 15.935 3.15949 15.9221C3.05874 15.801 3.0698 15.8179 3.19152 15.9722C3.14493 15.9431 2.89917 15.4807 2.89859 15.4813C2.91431 15.4749 3.01506 15.8243 2.93819 15.5704C2.91256 15.4859 2.88286 15.4033 2.86131 15.3171C2.81589 15.1342 2.89567 15.0585 2.85083 15.3567C2.86248 15.2798 2.83569 15.1831 2.83452 15.1027C2.83336 15.0183 2.84035 14.935 2.84268 14.8506C2.85141 14.5489 2.75998 15.1884 2.83977 14.8978C2.87704 14.7621 2.91314 14.6281 2.95566 14.4942C3.04651 14.2076 2.79551 14.7842 2.9475 14.5233C2.9906 14.4493 3.02787 14.3719 3.07271 14.2985C3.103 14.2496 3.13677 14.2024 3.16706 14.1535C3.255 14.0318 3.23287 14.058 3.10125 14.2321C3.13852 14.1867 3.17638 14.1418 3.21598 14.0982C3.32546 13.977 3.46465 13.8786 3.57064 13.7569C3.6941 13.6142 3.28178 13.9462 3.5357 13.7848C3.61432 13.7353 3.68944 13.6812 3.76923 13.634C3.86299 13.5781 4.0773 13.4104 4.1897 13.4174C4.13554 13.4407 4.08196 13.4645 4.0278 13.4878C4.08837 13.4645 4.14952 13.443 4.21183 13.4226C4.32306 13.3859 4.43604 13.3609 4.54902 13.3306C4.81342 13.259 4.24852 13.3399 4.43371 13.3417C4.49661 13.3422 4.56125 13.3312 4.62415 13.3294C4.70102 13.3271 4.77789 13.3288 4.85418 13.3329C5.01434 13.3417 5.12324 13.4319 4.78488 13.3155C4.9066 13.3574 5.04753 13.3655 5.17274 13.4011C5.25078 13.4232 5.32823 13.4477 5.40511 13.4744C5.63805 13.5554 5.49071 13.5455 5.37249 13.4523C5.49479 13.549 5.68814 13.6031 5.82616 13.6818C5.95195 13.754 6.07425 13.8309 6.19363 13.913C6.24139 13.9456 6.3532 14.0591 6.40795 14.0673C6.35844 14.0294 6.30894 13.9916 6.26002 13.9537C6.30661 13.991 6.35204 14.0289 6.39746 14.0673C6.53432 14.1838 6.66594 14.3061 6.79231 14.433C6.90879 14.5501 7.0206 14.6718 7.12776 14.7976C7.14872 14.822 7.24889 14.9723 7.27102 14.9711C7.23317 14.9222 7.19589 14.8739 7.15804 14.825C7.19356 14.8727 7.22909 14.921 7.26345 14.9694C7.46728 15.2577 7.63384 15.5617 7.79224 15.8767C7.89881 16.0893 7.75264 15.7975 7.75031 15.7707C7.75905 15.868 7.83359 15.9903 7.86387 16.0846C7.91337 16.239 7.95472 16.3962 7.98559 16.5558C8.0182 16.7246 7.94657 16.826 7.98035 16.4888C7.97045 16.586 7.99607 16.6973 7.99607 16.7963C7.99607 16.8598 7.99025 16.9227 7.98966 16.9856C7.98617 17.3175 8.06828 16.6874 7.99782 16.9407C7.98617 16.9821 7.9652 17.1917 7.92735 17.2069C8.01179 17.0222 8.01995 17.0001 7.95181 17.1399C7.9291 17.1841 7.90406 17.2267 7.87668 17.2686C7.86795 17.2826 7.85921 17.2965 7.85048 17.3105C7.76138 17.4369 7.77535 17.4194 7.89124 17.2593C7.89415 17.3082 7.64607 17.5167 7.60122 17.5371C7.88367 17.4084 7.68741 17.4648 7.59831 17.519C7.50571 17.5755 7.38866 17.6611 7.2815 17.6856C7.64315 17.6029 7.31295 17.6594 7.23724 17.6809C7.1394 17.7083 7.03982 17.7304 6.93965 17.7473C6.20237 17.8684 5.72599 18.8212 5.94496 19.4991C6.20295 20.2969 6.90646 20.623 7.69673 20.4937L7.69557 20.4926Z" fill="#A33F61"/>
<path d="M26.3582 15.7294C21.6159 15.1581 16.6472 16.9437 13.3533 20.403C12.16 21.6556 11.1607 23.157 10.8159 24.8523C10.3908 26.9406 11.0494 29.2195 12.524 30.7587C13.9985 32.2979 16.2471 33.0538 18.3518 32.7183C21.1524 32.2722 23.5267 30.0656 26.3623 30.0185C28.7674 29.9783 30.8914 31.4849 33.2925 31.4721C35.3791 31.461 37.6981 30.2345 38.6683 28.3325C40.5069 24.7276 36.6096 20.8991 34.0251 18.9325C31.7853 17.2285 29.164 16.0672 26.3582 15.7294Z" fill="#FFCCD8"/>
<path d="M26.3582 14.3055C21.1145 13.6736 15.4894 15.8208 11.9946 19.7792C10.9965 20.9102 10.1747 22.1692 9.68146 23.6019C9.2045 24.9862 9.16082 26.4875 9.46482 27.9132C10.0699 30.7522 12.241 33.0246 14.9985 33.8708C16.3618 34.2889 17.8271 34.3181 19.2131 33.9972C20.5427 33.6891 21.7796 33.0555 23.0061 32.4755C23.2874 32.3421 23.5692 32.2111 23.854 32.0858C23.9105 32.0608 23.9676 32.0363 24.0241 32.0119C23.7736 32.1185 23.9746 32.0328 24.0258 32.0136C24.1976 31.9484 24.3682 31.8809 24.5424 31.8203C24.8295 31.7207 25.1207 31.6328 25.4159 31.5635C25.5534 31.5314 25.6943 31.5122 25.8312 31.4796C25.9925 31.4412 25.7729 31.4837 25.7525 31.486C25.8737 31.472 25.9948 31.4598 26.1165 31.4528C26.4199 31.4348 26.7204 31.4476 27.0233 31.4697C27.3051 31.4901 27.0967 31.4755 27.0355 31.4668C27.1217 31.4796 27.2085 31.4942 27.2941 31.5099C27.4659 31.5413 27.6371 31.5786 27.8071 31.62C28.4699 31.7801 29.1163 32.0014 29.7645 32.2116C31.0707 32.635 32.4603 33.0101 33.8457 32.8662C35.2015 32.7253 36.5357 32.2903 37.6574 31.5C38.8477 30.6608 39.7708 29.5706 40.2675 28.1904C40.6915 27.0117 40.6449 25.6547 40.2675 24.4714C39.518 22.1174 37.7453 20.1711 35.8875 18.6104C33.7467 16.812 31.3031 15.394 28.5776 14.7009C27.8467 14.5152 27.106 14.3993 26.3582 14.3061C25.6163 14.2129 24.9029 15.0271 24.9343 15.73C24.9722 16.5808 25.5633 17.0543 26.3582 17.1539C26.088 17.1201 26.4997 17.1754 26.5778 17.1882C26.7321 17.2133 26.8858 17.2406 27.039 17.2709C27.3663 17.3356 27.6918 17.4113 28.0139 17.4981C28.6166 17.66 29.1955 17.8737 29.779 18.0909C29.9328 18.148 29.7709 18.0857 29.7459 18.0752C29.8274 18.1101 29.9089 18.1457 29.9893 18.1823C30.1308 18.2458 30.2717 18.3116 30.4115 18.3792C30.7114 18.5242 31.0067 18.6785 31.2973 18.8416C31.8406 19.1467 32.3677 19.4822 32.8749 19.845C33.0019 19.9359 33.1277 20.0285 33.2529 20.1228C33.2925 20.1525 33.3373 20.1968 33.381 20.2206C33.3501 20.2043 33.1248 20.018 33.3216 20.1758C33.5068 20.3243 33.692 20.4722 33.8737 20.6248C34.2796 20.9655 34.6739 21.3207 35.0518 21.6923C35.4344 22.0679 35.8013 22.4604 36.1444 22.8728C36.2305 22.9764 36.315 23.0812 36.3983 23.1872C36.2253 22.9665 36.4274 23.2315 36.4856 23.3136C36.651 23.5448 36.8083 23.7818 36.9538 24.0264C37.0779 24.2337 37.1932 24.4463 37.2992 24.6635C37.3563 24.7806 37.4547 25.038 37.3563 24.773C37.4063 24.9081 37.4599 25.0409 37.5048 25.1778C37.5828 25.4148 37.6346 25.6536 37.69 25.8958C37.7517 26.1666 37.6783 25.6559 37.6981 25.9319C37.708 26.0711 37.7191 26.2091 37.7202 26.3483C37.7208 26.4706 37.7138 26.5918 37.7069 26.7141C37.7039 26.77 37.6591 26.9884 37.7022 26.7863C37.7441 26.5906 37.7022 26.7717 37.694 26.8061C37.6643 26.9284 37.6405 27.0513 37.6055 27.1724C37.5904 27.2248 37.5747 27.2772 37.5572 27.329C37.5554 27.3349 37.4337 27.6622 37.51 27.4723C37.5764 27.3075 37.503 27.4845 37.4896 27.5107C37.4553 27.5789 37.4221 27.647 37.386 27.714C37.3231 27.8293 37.2555 27.9423 37.1839 28.0518C37.1385 28.1211 36.8991 28.4134 37.107 28.1746C37.0197 28.2748 36.9358 28.3773 36.8449 28.4746C36.6603 28.6708 36.46 28.845 36.255 29.0197C36.1327 29.1239 36.2998 28.983 36.3144 28.9731C36.2503 29.0156 36.1886 29.0633 36.1246 29.1064C35.9964 29.1932 35.8648 29.2759 35.7309 29.3534C35.6132 29.4215 35.4938 29.4856 35.3721 29.5467C35.3028 29.5817 34.9371 29.7383 35.2359 29.6195C34.9849 29.7191 34.7309 29.8082 34.47 29.8798C34.3413 29.9154 34.2115 29.9462 34.081 29.973C33.9593 29.9981 33.66 30.04 33.9576 30.0056C33.6699 30.0388 33.3828 30.0545 33.0933 30.0464C32.939 30.0417 32.7858 30.0301 32.6327 30.0161C32.3549 29.9905 32.7649 30.047 32.4911 29.994C32.1685 29.9311 31.8488 29.8606 31.532 29.7733C30.3259 29.4413 29.1617 28.9486 27.923 28.7407C26.5585 28.5118 25.2173 28.5945 23.9012 29.0348C22.7044 29.4355 21.5834 30.026 20.4384 30.5496C20.3062 30.6101 20.1717 30.6666 20.0401 30.7278C19.8916 30.7965 20.0739 30.7149 20.0942 30.7062C20.0179 30.7382 19.9411 30.7691 19.8642 30.8C19.5963 30.906 19.3249 31.0044 19.0495 31.09C18.7757 31.175 18.4974 31.2478 18.2155 31.3026C18.1555 31.3142 18.0932 31.3218 18.0338 31.3352C17.8201 31.3847 18.265 31.3194 18.0472 31.3352C17.8836 31.3468 17.7217 31.3643 17.5574 31.3695C17.2907 31.3777 17.0263 31.3643 16.7608 31.3462C16.4859 31.3276 16.7171 31.3462 16.7736 31.3538C16.713 31.3451 16.6524 31.3352 16.5919 31.3247C16.4305 31.2967 16.2704 31.263 16.1114 31.2234C15.8307 31.1535 15.5657 31.0527 15.292 30.9642C15.1383 30.9141 15.327 30.9817 15.3479 30.991C15.2734 30.9578 15.1988 30.924 15.1249 30.8879C14.9775 30.8169 14.8325 30.74 14.6904 30.6585C14.5838 30.5973 14.479 30.5332 14.3765 30.4663C14.3334 30.4383 14.0108 30.2129 14.1203 30.2939C14.2286 30.3737 13.9351 30.1384 13.885 30.0936C13.7627 29.9847 13.6445 29.8705 13.5315 29.7523C13.4325 29.6486 13.3446 29.5339 13.245 29.4314C13.1349 29.3178 13.2613 29.4599 13.2764 29.4797C13.2263 29.4151 13.1786 29.3481 13.132 29.2812C12.9684 29.0465 12.8199 28.8007 12.6877 28.5462C12.6644 28.5014 12.4902 28.1414 12.5496 28.2719C12.609 28.4018 12.464 28.0471 12.4425 27.9842C12.3411 27.6942 12.2602 27.3972 12.199 27.0961C12.1833 27.0192 12.1257 26.6087 12.1612 26.929C12.1478 26.8067 12.135 26.6849 12.1268 26.5621C12.107 26.2557 12.1082 25.9482 12.1309 25.6425C12.1391 25.5307 12.2043 25.1999 12.1449 25.4725C12.1763 25.3292 12.1973 25.1842 12.2311 25.0409C12.305 24.7253 12.4046 24.4201 12.5164 24.1167C12.5217 24.1021 12.6026 23.9047 12.5421 24.048C12.4757 24.2046 12.5852 23.9577 12.6015 23.9233C12.6568 23.8063 12.7144 23.691 12.775 23.5763C12.9264 23.2891 13.0941 23.0108 13.2741 22.7411C13.3585 22.6148 13.4459 22.4901 13.5356 22.3678C13.574 22.3154 13.613 22.263 13.6526 22.2112C13.5059 22.4034 13.6433 22.2257 13.6719 22.1914C13.8815 21.9415 14.0923 21.6946 14.316 21.4576C14.7155 21.0342 15.14 20.6353 15.5867 20.2626C15.6979 20.1694 15.8115 20.0791 15.925 19.9883C15.7224 20.1508 16.0176 19.9207 16.0829 19.873C16.3345 19.6895 16.5913 19.5142 16.8533 19.3465C17.3425 19.0332 17.8492 18.7472 18.3704 18.4904C18.6307 18.3617 18.8946 18.2394 19.1624 18.1264C18.9365 18.2219 19.198 18.1148 19.2836 18.0816C19.4385 18.021 19.594 17.9634 19.7506 17.9075C20.3179 17.706 20.8967 17.5371 21.4832 17.4008C21.7458 17.3397 22.0102 17.2855 22.2758 17.2383C22.4185 17.2127 22.5629 17.1935 22.7056 17.1679C22.9251 17.1283 22.4755 17.1929 22.6968 17.1679C22.7795 17.1585 22.8617 17.1481 22.9438 17.1387C23.5413 17.0735 24.1435 17.0432 24.7445 17.049C25.2837 17.0543 25.823 17.0887 26.3588 17.1533C27.1013 17.243 27.8141 16.4347 27.7827 15.7294C27.7448 14.8815 27.1543 14.401 26.3588 14.3055H26.3582Z" fill="#A33F61"/>
</svg>
