<svg width="49" height="35" viewBox="0 0 49 35" fill="none" xmlns="http://www.w3.org/2000/svg">
<path d="M42.9703 18.0752C44.7396 17.8335 46.4115 16.5173 47.0883 14.691C48.1493 11.8281 46.2048 7.78817 43.1206 8.33443C40.7189 8.76015 38.4127 13.277 39.0207 15.6804C39.4831 17.5091 41.3571 18.2953 42.9703 18.0746V18.0752Z" fill="#DC8599"/>
<path d="M43.3488 19.4478C45.8909 19.0687 48.1796 16.8656 48.6636 14.3398C49.0864 12.1332 48.4539 9.50617 46.6742 8.02054C45.7639 7.26055 44.6108 6.76553 43.4036 6.87269C42.2033 6.97926 41.2011 7.51388 40.3415 8.34899C38.7219 9.92256 37.6364 12.2858 37.5065 14.539C37.4279 15.9087 37.9264 17.3507 38.9846 18.2586C40.0719 19.1916 41.5383 19.6761 42.9709 19.4985C43.7076 19.4076 44.4321 18.9091 44.3948 18.0746C44.3639 17.3816 43.7623 16.5528 42.9709 16.6507C42.7589 16.6769 42.5463 16.6909 42.332 16.685C42.233 16.6827 42.1334 16.667 42.0344 16.6664C41.8626 16.6652 42.1783 16.6775 42.1661 16.6856C42.1305 16.7095 41.9587 16.6466 41.9209 16.6379C41.8236 16.6157 41.7269 16.5901 41.6314 16.561C41.5802 16.5453 41.2756 16.4591 41.473 16.5144C41.6559 16.5657 41.3525 16.4544 41.2832 16.416C41.183 16.3612 41.0887 16.2826 40.9868 16.2337C40.8423 16.165 41.0776 16.3094 41.0753 16.3082C41.0392 16.2949 40.9891 16.2378 40.9611 16.2116C40.8755 16.1312 40.7952 16.0473 40.7119 15.9652C40.5302 15.7853 40.8202 16.1545 40.6845 15.9344C40.6117 15.8156 40.5418 15.6979 40.4754 15.575C40.3514 15.3456 40.5279 15.7742 40.4568 15.5162C40.43 15.4201 40.4026 15.324 40.377 15.2274C40.37 15.2012 40.359 15.0841 40.3467 15.0754C40.3467 15.0754 40.3782 15.4021 40.37 15.2565C40.3648 15.1604 40.3526 15.0655 40.3491 14.9694C40.3421 14.7813 40.3491 14.5932 40.3642 14.4056C40.3694 14.3462 40.3753 14.0481 40.3747 14.2781C40.3741 14.5041 40.4061 14.1214 40.4207 14.0504C40.5069 13.6293 40.6309 13.2164 40.7818 12.814C40.8144 12.7267 40.9093 12.3796 40.8109 12.7267C40.8383 12.6312 40.8959 12.5345 40.9384 12.4448C41.0415 12.227 41.1522 12.0133 41.2715 11.8036C41.3729 11.626 41.4794 11.4513 41.5924 11.2806C41.6571 11.1828 41.7258 11.0873 41.7933 10.9906C41.8178 10.9551 41.8487 10.8974 41.8819 10.8701C41.8213 10.9196 41.7223 11.0658 41.8417 10.9254C41.9762 10.767 42.1101 10.6092 42.2563 10.4607C42.321 10.3949 42.3874 10.3302 42.4555 10.2667C42.4887 10.2359 42.5225 10.205 42.5568 10.1753C42.6186 10.1211 42.7892 10.0425 42.6186 10.1165C42.4322 10.1969 42.6599 10.088 42.7187 10.0478C42.788 10.0006 42.8591 9.95576 42.9313 9.91324C43.0134 9.86491 43.0984 9.82414 43.1829 9.7793C43.3791 9.67505 42.8812 9.86782 43.1701 9.79094C43.2539 9.76823 43.3442 9.74785 43.4263 9.72106C43.6325 9.65409 43.1433 9.73329 43.4042 9.7199C43.4962 9.71524 43.5876 9.70766 43.6802 9.70766C43.7251 9.70766 43.7705 9.71116 43.8153 9.71116C44.0599 9.71116 43.8468 9.74202 43.7454 9.68961C43.8823 9.76008 44.0984 9.76066 44.2492 9.81133C44.2882 9.82414 44.3761 9.87189 44.4099 9.87073C44.4 9.87073 44.1461 9.73737 44.2649 9.81366C44.3482 9.86665 44.4431 9.90509 44.5281 9.95634C44.6143 10.0082 44.6935 10.0699 44.7786 10.1235C44.9014 10.2021 44.6615 10.0402 44.6615 10.0338C44.6615 10.0472 44.7489 10.1083 44.7605 10.1194C44.9096 10.2615 45.0401 10.4269 45.1891 10.5655C45.2986 10.6674 45.0936 10.4682 45.1059 10.4543C45.1035 10.4566 45.1798 10.5568 45.1856 10.5649C45.2363 10.6412 45.2881 10.7163 45.3365 10.7938C45.4512 10.9796 45.5374 11.177 45.6422 11.3668C45.7208 11.5101 45.5799 11.2375 45.5921 11.2428C45.6079 11.2492 45.6609 11.4204 45.6603 11.4193C45.6929 11.5084 45.7232 11.5986 45.7517 11.6895C45.8181 11.9026 45.8717 12.1198 45.9124 12.3394C45.9212 12.3866 45.9264 12.4349 45.9369 12.4815C45.9736 12.6411 45.9078 12.3394 45.9194 12.3411C45.9322 12.3429 45.9445 12.6026 45.9462 12.6283C45.9608 12.8513 45.9625 13.0761 45.9497 13.2991C45.9468 13.3469 45.9421 13.3946 45.9392 13.4424C45.9194 13.765 45.9334 13.3946 45.9515 13.3952C45.9515 13.3952 45.8961 13.6952 45.8903 13.7219C45.8455 13.9229 45.7843 14.1174 45.7173 14.3119C45.7092 14.3352 45.6329 14.5186 45.6999 14.362C45.7686 14.203 45.6626 14.4336 45.6492 14.461C45.5799 14.6013 45.5042 14.7388 45.4227 14.8727C45.3516 14.9892 45.2753 15.1016 45.1973 15.2134C45.1822 15.2349 45.0599 15.3823 45.1682 15.2542C45.2928 15.1057 45.0814 15.3491 45.0569 15.3765C44.8776 15.5768 44.6819 15.7591 44.4781 15.9332C44.2783 16.1044 44.4548 15.9489 44.4967 15.9204C44.4344 15.9629 44.3732 16.0083 44.3103 16.0503C44.2009 16.1231 44.0885 16.1918 43.9731 16.2564C43.8427 16.3298 43.707 16.3921 43.5736 16.4591C43.4292 16.5313 43.6441 16.4282 43.6569 16.4236C43.5865 16.4463 43.5183 16.4754 43.4484 16.4993C43.1695 16.593 42.8841 16.6577 42.5935 16.7013C41.8545 16.8114 41.3822 17.7828 41.5988 18.4531C41.8597 19.2597 42.558 19.566 43.3506 19.4478H43.3488Z" fill="#FFEDF1"/>
<path d="M26.8025 5.38589C26.3559 7.13766 27.0978 9.26506 28.6527 9.94701C29.7982 10.4496 31.1726 10.0973 32.1213 9.23885C33.07 8.38044 33.6209 7.08408 33.8125 5.76094C33.9668 4.69578 33.8853 3.53512 33.3111 2.65457C31.3287 -0.381904 27.4548 2.82754 26.8031 5.38531L26.8025 5.38589Z" fill="#DC8599"/>
<path d="M25.4293 5.00735C24.9087 7.16329 25.5976 9.65699 27.4926 10.9301C28.5077 11.6126 29.832 11.7518 30.9991 11.4367C32.2663 11.0943 33.282 10.2522 34.0216 9.1911C34.6669 8.26513 35.0483 7.13242 35.2021 6.02068C35.3849 4.69578 35.3162 3.3342 34.6605 2.13627C34.1503 1.20506 33.289 0.439823 32.2628 0.138738C31.327 -0.135558 30.3457 0.0216813 29.4646 0.393233C27.58 1.18875 25.9581 3.0238 25.4299 5.00735C25.2383 5.72658 25.6704 6.58732 26.4246 6.75912C27.1718 6.92917 27.9714 6.53491 28.1763 5.76444C28.2171 5.61185 28.2678 5.4651 28.3202 5.31659C28.4145 5.0487 28.1915 5.55886 28.2882 5.39288C28.3231 5.33348 28.3476 5.26534 28.379 5.20419C28.4571 5.05045 28.5427 4.9002 28.6341 4.75402C28.676 4.68705 28.9521 4.36733 28.9358 4.31492C28.8979 4.36325 28.8606 4.41217 28.8228 4.46051C28.8601 4.41334 28.8985 4.36674 28.9369 4.32015C28.9759 4.27357 29.015 4.22814 29.0551 4.18272C29.1757 4.04644 29.3015 3.91483 29.4325 3.78903C29.5414 3.68479 29.6538 3.58346 29.7691 3.48678C30.0079 3.28761 29.8314 3.51008 29.7627 3.48853C29.7767 3.49261 29.9636 3.34702 29.9799 3.33595C30.1244 3.23986 30.2729 3.15076 30.4266 3.06981C30.4767 3.0436 30.5285 3.02031 30.578 2.99352C30.8454 2.85084 30.2607 3.10242 30.5443 3.00574C30.6852 2.95799 30.8238 2.90849 30.9688 2.87413C31.0288 2.85957 31.1063 2.85783 31.1622 2.83395C30.9123 2.86365 30.8634 2.87064 31.0148 2.85491C31.0661 2.85025 31.1173 2.84734 31.1686 2.84618C31.232 2.84443 31.2961 2.84967 31.3596 2.84851C31.5157 2.84618 31.5553 2.94169 31.2454 2.82579C31.3619 2.86947 31.5646 2.93528 31.6875 2.94751C31.6531 2.94401 31.3753 2.78445 31.5617 2.9015C31.6292 2.94401 31.7009 2.98536 31.7702 3.02496C32.0223 3.17056 31.5384 2.7961 31.7504 3.00924C31.8138 3.0733 31.8814 3.13096 31.9431 3.19735L32.0054 3.26665C32.1021 3.38254 32.0887 3.36216 31.9647 3.2055C31.9728 3.21132 32.0771 3.3674 32.0811 3.3738C32.1231 3.43903 32.1633 3.506 32.2005 3.57356C32.232 3.63063 32.3572 3.97131 32.25 3.65742C32.3205 3.86299 32.3816 4.06799 32.4224 4.28172C32.4387 4.36616 32.4533 4.62765 32.4311 4.31724C32.4422 4.47798 32.455 4.63755 32.4562 4.79886C32.4579 5.00153 32.4399 5.2007 32.43 5.40278C32.4113 5.79763 32.4905 5.11626 32.4207 5.49887C32.4032 5.59555 32.3875 5.6928 32.3677 5.78948C32.3246 6.00204 32.2727 6.21228 32.2104 6.4196C32.1766 6.53258 32.14 6.64439 32.0998 6.75504C32.0747 6.82493 31.9321 7.1464 32.0689 6.84939C31.9717 7.06021 31.8686 7.26637 31.7486 7.46554C31.709 7.53076 31.6682 7.59599 31.6257 7.65947C31.5943 7.70722 31.3613 8.00073 31.5791 7.73867C31.4586 7.88368 31.3334 8.02461 31.1965 8.15506C31.115 8.2331 31.0305 8.30764 30.942 8.37811C31.2187 8.15739 30.8279 8.43751 30.7673 8.47187C30.7033 8.50914 30.6351 8.54059 30.5711 8.57786C30.2665 8.75723 30.8407 8.50798 30.5035 8.60873C30.3975 8.64018 30.295 8.67803 30.1879 8.70482C30.1704 8.70948 29.825 8.80382 30.0557 8.74209C30.2735 8.68385 29.9549 8.74908 29.9211 8.75024C29.8128 8.75549 29.7057 8.74733 29.5973 8.74792C29.2561 8.75083 29.8757 8.83935 29.5484 8.74034C29.4453 8.7089 29.3388 8.68153 29.2345 8.65299C28.9008 8.56156 29.4611 8.79916 29.2036 8.63668C29.1215 8.58485 29.0179 8.50565 28.9288 8.47012C28.7622 8.40432 29.1739 8.69958 28.962 8.49633C28.8729 8.41014 28.7808 8.32919 28.697 8.23718C28.6993 8.23951 28.5724 8.11022 28.5753 8.09566C28.7005 8.26105 28.7185 8.28144 28.6288 8.15739C28.5927 8.10498 28.5584 8.05198 28.5252 7.99782C28.4751 7.91571 28.4279 7.83243 28.3843 7.74682C28.3621 7.70373 28.3406 7.66063 28.3202 7.61637C28.2754 7.5197 28.2911 7.55872 28.3668 7.73343C28.2445 7.60647 28.2002 7.24365 28.1618 7.07593C28.1472 7.01129 28.1356 6.94606 28.1216 6.88142C28.096 6.72302 28.0977 6.75097 28.128 6.9647C28.1204 6.89889 28.114 6.8325 28.1088 6.76611C28.0942 6.56694 28.0925 6.36719 28.1041 6.16802C28.1065 6.13482 28.1088 6.10163 28.1111 6.06901C28.1274 5.90944 28.1222 5.93681 28.0948 6.15171C28.0622 6.07833 28.1548 5.84189 28.1734 5.76444C28.3481 5.04171 27.9451 4.18738 27.1788 4.01267C26.4461 3.84552 25.6145 4.2328 25.427 5.00735H25.4293Z" fill="#FFEDF1"/>
<path d="M13.5542 3.12222C13.0004 3.99519 12.9182 5.10868 13.1553 6.11502C13.3929 7.12077 13.9228 8.03451 14.5244 8.87487C15.0509 9.60982 15.7119 10.3477 16.6012 10.5102C17.4794 10.6703 18.3739 10.212 18.9924 9.56847C20.1024 8.41421 20.4943 6.62052 19.9673 5.1081C19.1566 2.7827 15.2996 0.369936 13.5542 3.12222Z" fill="#DC8599"/>
<path d="M12.3248 2.40358C10.9766 4.52923 11.7139 7.21745 13.0015 9.16722C13.6177 10.1002 14.3602 11.11 15.4061 11.591C16.646 12.1606 18.0478 12.036 19.1758 11.2562C21.1384 9.89984 22.03 7.35139 21.4372 5.04987C21.0004 3.35517 19.6173 1.85615 18.0664 1.09092C17.0711 0.599977 16.0386 0.3746 14.935 0.548146C13.8203 0.724022 12.9258 1.48518 12.3242 2.40358C11.9154 3.02788 12.1786 4.00509 12.835 4.3516C13.5466 4.72723 14.3468 4.5071 14.783 3.84086C14.8011 3.81291 14.8197 3.78496 14.8377 3.75759C14.928 3.63063 14.9111 3.64985 14.7871 3.81466C14.7836 3.80359 14.8896 3.69585 14.9076 3.67664C14.9682 3.61199 15.034 3.55434 15.0969 3.49261C15.2664 3.32489 15.0387 3.55783 15.0072 3.55783C15.0526 3.55783 15.3188 3.39419 15.3566 3.35284C15.211 3.51124 15.0934 3.44951 15.3101 3.38137C15.3852 3.3575 15.4615 3.34294 15.5372 3.32197C15.8161 3.24452 15.1784 3.33712 15.4685 3.32838C15.5209 3.32663 15.5733 3.32139 15.6263 3.32023C15.7561 3.31731 15.8971 3.34934 16.0252 3.33828C15.6816 3.36798 15.8068 3.30567 15.9687 3.34003C16.0229 3.35168 16.0764 3.3639 16.13 3.37788C16.2599 3.41166 16.4806 3.53745 16.6122 3.5357C16.3962 3.53862 16.3764 3.42331 16.5499 3.51299C16.6146 3.54619 16.6809 3.57647 16.7456 3.61025C16.876 3.67896 17.0036 3.75351 17.1276 3.83271C17.1777 3.86474 17.4444 4.09361 17.4945 4.08721C17.3862 4.10118 17.2645 3.89211 17.4514 4.05984C17.5289 4.12972 17.6092 4.19553 17.6855 4.26716C17.7933 4.36791 17.8975 4.47274 17.9977 4.58164C18.0373 4.62474 18.0763 4.66841 18.1147 4.71267C18.2172 4.83148 18.233 4.98056 18.1101 4.69346C18.2225 4.9561 18.4508 5.21002 18.5876 5.46801C18.6424 5.57109 18.6133 5.65495 18.5393 5.34338C18.5591 5.42608 18.6028 5.51227 18.6284 5.59322C18.6849 5.77084 18.7222 5.95196 18.7606 6.13424C18.788 6.26411 18.8491 6.2775 18.7542 6.08707C18.7915 6.16161 18.7717 6.33807 18.7728 6.42076C18.774 6.49531 18.7734 6.56927 18.7717 6.64381C18.7705 6.684 18.7361 7.11786 18.76 6.89889C18.7851 6.66478 18.735 7.0241 18.7315 7.03982C18.7163 7.11262 18.6994 7.18542 18.6814 7.25763C18.6348 7.43816 18.5748 7.61346 18.5096 7.78817C18.6325 7.45738 18.4997 7.79632 18.47 7.85456C18.4362 7.92037 18.4007 7.98618 18.3634 8.05024C18.3075 8.14691 18.2446 8.23834 18.1846 8.33269C17.9948 8.63086 18.3751 8.13701 18.1351 8.39733C18.0041 8.53943 17.8731 8.67454 17.7292 8.80382C17.4607 9.04609 17.9593 8.69434 17.6395 8.86381C17.5708 8.9005 17.5056 8.9465 17.4374 8.98436C17.3699 9.02163 17.0432 9.12296 17.3524 9.03211C17.2796 9.05366 17.2033 9.07579 17.1317 9.09908C16.8062 9.20682 17.3996 9.12878 17.0583 9.11714C16.9646 9.11422 16.6472 9.17538 16.9785 9.1381C16.8924 9.148 16.7922 9.08394 16.7083 9.0688C16.5214 9.03502 16.9686 9.23594 16.6932 9.06123C16.6181 9.01348 16.5354 8.95873 16.4562 8.91797C16.2745 8.82421 16.6833 9.13985 16.4329 8.90166C16.2937 8.76946 16.1562 8.64192 16.0281 8.49866C15.9641 8.42703 15.9052 8.35074 15.8418 8.27911C15.7777 8.19932 15.7928 8.21971 15.8878 8.34084C15.8423 8.28027 15.7975 8.21912 15.7532 8.15739C15.4638 7.75439 15.1936 7.33625 14.9618 6.89656C14.9117 6.80105 14.8669 6.70321 14.8168 6.60829C14.6636 6.3171 14.8587 6.75796 14.7568 6.47492C14.6694 6.23208 14.5867 5.98923 14.5273 5.73764C14.5 5.62117 14.4778 5.50353 14.458 5.38589C14.5 5.63864 14.4656 5.41443 14.4586 5.28747C14.4464 5.0487 14.4522 4.8076 14.4808 4.57058C14.4441 4.8769 14.4697 4.65851 14.4877 4.59678C14.532 4.44536 14.5693 4.2922 14.6164 4.14079C14.6421 4.05693 14.7387 3.94336 14.6095 4.1536C14.6718 4.05285 14.7189 3.94278 14.7824 3.84261C15.1819 3.21249 14.9344 2.24459 14.2717 1.89459C13.5688 1.52303 12.75 1.73268 12.3237 2.40532L12.3248 2.40358Z" fill="#FFEDF1"/>
<path d="M7.31703 19.1193C8.24941 18.9662 9.14451 18.3128 9.35475 17.3914C9.92722 14.8832 6.57742 11.2952 4.0214 11.9929C1.72395 12.6201 0.495152 15.1452 2.22188 17.0065C3.41399 18.2912 5.52333 19.4134 7.31645 19.1193H7.31703Z" fill="#DC8599"/>
<path d="M7.69557 20.4926C8.79334 20.3126 9.93129 19.5369 10.4321 18.5329C10.9068 17.5801 10.9405 16.5016 10.6569 15.4848C10.1619 13.712 8.82129 12.0995 7.22501 11.202C6.42658 10.753 5.47441 10.4339 4.54669 10.4851C3.43204 10.5469 2.39891 11.025 1.55564 11.7436C-0.0423836 13.1052 -0.535651 15.5518 0.674514 17.3297C1.39083 18.3827 2.47986 19.2335 3.61839 19.7885C4.91941 20.4227 6.25595 20.7069 7.69498 20.4932C8.43401 20.3837 8.90631 19.4117 8.68967 18.7414C8.42819 17.9342 7.73051 17.6291 6.9379 17.7467C7.32984 17.6885 6.97518 17.7356 6.89772 17.7391C6.79115 17.7438 6.68457 17.7444 6.578 17.7409C6.48948 17.738 6.33806 17.7514 6.25537 17.7176C6.28507 17.7298 6.58382 17.7793 6.31011 17.7217C6.09172 17.6757 5.87624 17.6291 5.6631 17.5633C5.59146 17.5411 5.51983 17.5178 5.44937 17.4928C5.38298 17.4695 4.93746 17.2721 5.26242 17.4258C4.88447 17.2464 4.51932 17.0519 4.17165 16.8184C4.07847 16.7561 3.9882 16.6909 3.89735 16.6256C3.67954 16.4696 3.88687 16.6268 3.92414 16.646C3.72322 16.5412 3.52929 16.3077 3.37089 16.1475C3.31032 16.087 3.2515 16.0246 3.19443 15.9612C3.18278 15.9483 3.17113 15.935 3.15949 15.9221C3.05874 15.801 3.0698 15.8179 3.19152 15.9722C3.14493 15.9431 2.89917 15.4807 2.89859 15.4813C2.91431 15.4749 3.01506 15.8243 2.93819 15.5704C2.91256 15.4859 2.88286 15.4032 2.86131 15.3171C2.81589 15.1342 2.89567 15.0585 2.85083 15.3567C2.86248 15.2798 2.83569 15.1831 2.83452 15.1027C2.83336 15.0183 2.84035 14.935 2.84268 14.8506C2.85141 14.5489 2.75998 15.1884 2.83977 14.8977C2.87704 14.7621 2.91314 14.6281 2.95566 14.4942C3.04651 14.2076 2.79551 14.7842 2.9475 14.5233C2.9906 14.4493 3.02787 14.3719 3.07271 14.2985C3.103 14.2496 3.13677 14.2024 3.16706 14.1535C3.255 14.0318 3.23287 14.058 3.10125 14.2321C3.13852 14.1867 3.17638 14.1418 3.21598 14.0982C3.32546 13.977 3.46465 13.8786 3.57064 13.7569C3.6941 13.6142 3.28178 13.9462 3.5357 13.7848C3.61432 13.7353 3.68944 13.6812 3.76923 13.634C3.86299 13.5781 4.0773 13.4104 4.1897 13.4174C4.13554 13.4407 4.08196 13.4645 4.0278 13.4878C4.08837 13.4645 4.14952 13.443 4.21183 13.4226C4.32306 13.3859 4.43604 13.3609 4.54902 13.3306C4.81342 13.259 4.24852 13.3399 4.43371 13.3417C4.49661 13.3422 4.56125 13.3312 4.62415 13.3294C4.70102 13.3271 4.77789 13.3288 4.85418 13.3329C5.01434 13.3417 5.12324 13.4319 4.78488 13.3155C4.9066 13.3574 5.04753 13.3655 5.17274 13.4011C5.25078 13.4232 5.32823 13.4476 5.40511 13.4744C5.63805 13.5554 5.49071 13.5455 5.37249 13.4523C5.49479 13.549 5.68814 13.6031 5.82616 13.6818C5.95195 13.754 6.07425 13.8308 6.19363 13.913C6.24139 13.9456 6.3532 14.0591 6.40795 14.0673C6.35844 14.0294 6.30894 13.9916 6.26002 13.9537C6.30661 13.991 6.35204 14.0289 6.39746 14.0673C6.53432 14.1838 6.66594 14.3061 6.79231 14.433C6.90879 14.5501 7.0206 14.6718 7.12776 14.7976C7.14872 14.822 7.24889 14.9723 7.27102 14.9711C7.23317 14.9222 7.19589 14.8739 7.15804 14.825C7.19356 14.8727 7.22909 14.921 7.26345 14.9694C7.46728 15.2577 7.63384 15.5617 7.79224 15.8767C7.89881 16.0893 7.75264 15.7975 7.75031 15.7707C7.75905 15.868 7.83359 15.9903 7.86387 16.0846C7.91337 16.2389 7.95472 16.3962 7.98559 16.5558C8.0182 16.7246 7.94657 16.826 7.98035 16.4888C7.97045 16.586 7.99607 16.6973 7.99607 16.7963C7.99607 16.8598 7.99025 16.9227 7.98966 16.9855C7.98617 17.3175 8.06828 16.6874 7.99782 16.9407C7.98617 16.9821 7.9652 17.1917 7.92735 17.2068C8.01179 17.0222 8.01995 17.0001 7.95181 17.1399C7.9291 17.1841 7.90406 17.2266 7.87668 17.2686C7.86795 17.2826 7.85921 17.2965 7.85048 17.3105C7.76138 17.4369 7.77535 17.4194 7.89124 17.2593C7.89415 17.3082 7.64607 17.5167 7.60122 17.5371C7.88367 17.4083 7.68741 17.4648 7.59831 17.519C7.50571 17.5755 7.38866 17.6611 7.2815 17.6856C7.64315 17.6029 7.31295 17.6594 7.23724 17.6809C7.1394 17.7083 7.03982 17.7304 6.93965 17.7473C6.20237 17.8684 5.72599 18.8212 5.94496 19.4991C6.20295 20.2969 6.90646 20.623 7.69673 20.4937L7.69557 20.4926Z" fill="#FFEDF1"/>
<path d="M26.3582 15.7294C21.616 15.1581 16.6472 16.9436 13.3533 20.4029C12.16 21.6556 11.1607 23.1569 10.8159 24.8522C10.3908 26.9406 11.0494 29.2194 12.524 30.7586C13.9986 32.2978 16.2471 33.0537 18.3518 32.7183C21.1524 32.2722 23.5267 30.0656 26.3623 30.0184C28.7675 29.9782 30.8914 31.4848 33.2925 31.472C35.3791 31.461 37.6981 30.2345 38.6683 28.3325C40.5069 24.7276 36.6097 20.8991 34.0251 18.9324C31.7853 17.2284 29.1641 16.0672 26.3582 15.7294Z" fill="#DC8599"/>
<path d="M26.3582 14.3055C21.1145 13.6736 15.4894 15.8208 11.9946 19.7792C10.9964 20.9101 10.1747 22.1692 9.68145 23.6019C9.20449 24.9861 9.16081 26.4875 9.46481 27.9131C10.0699 30.7522 12.241 33.0246 14.9985 33.8708C16.3618 34.2889 17.8271 34.318 19.2131 33.9972C20.5427 33.6891 21.7796 33.0555 23.0061 32.4754C23.2874 32.3421 23.5692 32.211 23.854 32.0858C23.9105 32.0608 23.9676 32.0363 24.0241 32.0119C23.7736 32.1184 23.9746 32.0328 24.0258 32.0136C24.1976 31.9484 24.3682 31.8808 24.5424 31.8203C24.8295 31.7207 25.1207 31.6327 25.4159 31.5634C25.5534 31.5314 25.6943 31.5122 25.8312 31.4796C25.9925 31.4411 25.7729 31.4836 25.7525 31.486C25.8737 31.472 25.9948 31.4598 26.1165 31.4528C26.4199 31.4347 26.7204 31.4475 27.0233 31.4697C27.3051 31.4901 27.0966 31.4755 27.0355 31.4668C27.1217 31.4796 27.2085 31.4941 27.2941 31.5099C27.4659 31.5413 27.6371 31.5786 27.8071 31.6199C28.4699 31.7801 29.1163 32.0014 29.7645 32.2116C31.0707 32.635 32.4603 33.01 33.8457 32.8662C35.2015 32.7253 36.5357 32.2902 37.6573 31.5C38.8477 30.6608 39.7708 29.5706 40.2675 28.1903C40.6915 27.0116 40.6449 25.6547 40.2675 24.4713C39.518 22.1174 37.7453 20.1711 35.8875 18.6104C33.7467 16.812 31.3031 15.3939 28.5776 14.7009C27.8467 14.5151 27.106 14.3992 26.3582 14.3061C25.6163 14.2129 24.9029 15.027 24.9343 15.73C24.9722 16.5808 25.5633 17.0543 26.3582 17.1539C26.088 17.1201 26.4997 17.1754 26.5778 17.1882C26.7321 17.2133 26.8858 17.2406 27.039 17.2709C27.3663 17.3356 27.6918 17.4113 28.0139 17.498C28.6166 17.6599 29.1955 17.8737 29.779 18.0909C29.9328 18.148 29.7709 18.0856 29.7458 18.0752C29.8274 18.1101 29.9089 18.1456 29.9893 18.1823C30.1308 18.2458 30.2717 18.3116 30.4115 18.3792C30.7114 18.5242 31.0067 18.6785 31.2973 18.8416C31.8406 19.1467 32.3677 19.4822 32.8749 19.845C33.0019 19.9358 33.1277 20.0284 33.2529 20.1228C33.2925 20.1525 33.3373 20.1967 33.381 20.2206C33.3501 20.2043 33.1248 20.0179 33.3216 20.1758C33.5068 20.3243 33.692 20.4722 33.8737 20.6248C34.2796 20.9655 34.6739 21.3207 35.0518 21.6923C35.4344 22.0679 35.8013 22.4604 36.1443 22.8727C36.2305 22.9764 36.315 23.0812 36.3983 23.1872C36.2253 22.9665 36.4274 23.2315 36.4856 23.3136C36.651 23.5448 36.8082 23.7818 36.9538 24.0264C37.0779 24.2337 37.1932 24.4463 37.2992 24.6635C37.3563 24.7806 37.4547 25.038 37.3563 24.773C37.4063 24.9081 37.4599 25.0409 37.5048 25.1777C37.5828 25.4148 37.6346 25.6535 37.69 25.8958C37.7517 26.1666 37.6783 25.6559 37.6981 25.9319C37.708 26.0711 37.7191 26.2091 37.7202 26.3483C37.7208 26.4706 37.7138 26.5917 37.7068 26.714C37.7039 26.7699 37.6591 26.9883 37.7022 26.7863C37.7441 26.5906 37.7022 26.7717 37.694 26.8061C37.6643 26.9284 37.6405 27.0512 37.6055 27.1724C37.5904 27.2248 37.5746 27.2772 37.5572 27.329C37.5554 27.3348 37.4337 27.6621 37.51 27.4723C37.5764 27.3075 37.503 27.4845 37.4896 27.5107C37.4553 27.5789 37.4221 27.647 37.386 27.714C37.3231 27.8293 37.2555 27.9423 37.1839 28.0517C37.1385 28.121 36.8991 28.4134 37.107 28.1746C37.0196 28.2748 36.9358 28.3773 36.8449 28.4745C36.6603 28.6708 36.46 28.8449 36.255 29.0196C36.1327 29.1239 36.2998 28.983 36.3144 28.9731C36.2503 29.0156 36.1886 29.0633 36.1245 29.1064C35.9964 29.1932 35.8648 29.2759 35.7309 29.3533C35.6132 29.4215 35.4938 29.4855 35.3721 29.5467C35.3028 29.5816 34.9371 29.7383 35.2358 29.6195C34.9848 29.7191 34.7309 29.8082 34.47 29.8798C34.3413 29.9153 34.2115 29.9462 34.081 29.973C33.9593 29.998 33.66 30.04 33.9575 30.0056C33.6699 30.0388 33.3827 30.0545 33.0933 30.0464C32.939 30.0417 32.7858 30.0301 32.6327 30.0161C32.3549 29.9905 32.7649 30.0469 32.4911 29.9939C32.1685 29.9311 31.8488 29.8606 31.532 29.7732C30.3259 29.4413 29.1617 28.9486 27.923 28.7407C26.5585 28.5118 25.2173 28.5945 23.9012 29.0348C22.7044 29.4355 21.5833 30.026 20.4384 30.5495C20.3062 30.6101 20.1717 30.6666 20.0401 30.7277C19.8916 30.7965 20.0738 30.7149 20.0942 30.7062C20.0179 30.7382 19.9411 30.7691 19.8642 30.7999C19.5963 30.9059 19.3249 31.0044 19.0495 31.09C18.7757 31.175 18.4974 31.2478 18.2155 31.3025C18.1555 31.3142 18.0932 31.3218 18.0338 31.3351C17.8201 31.3846 18.265 31.3194 18.0472 31.3351C17.8836 31.3468 17.7217 31.3643 17.5574 31.3695C17.2907 31.3777 17.0263 31.3643 16.7607 31.3462C16.4859 31.3276 16.7171 31.3462 16.7736 31.3538C16.713 31.345 16.6524 31.3351 16.5919 31.3247C16.4305 31.2967 16.2704 31.2629 16.1114 31.2233C15.8307 31.1534 15.5657 31.0527 15.292 30.9642C15.1383 30.9141 15.3269 30.9816 15.3479 30.991C15.2734 30.9578 15.1988 30.924 15.1249 30.8879C14.9775 30.8168 14.8325 30.74 14.6904 30.6584C14.5838 30.5973 14.479 30.5332 14.3765 30.4662C14.3334 30.4383 14.0108 30.2129 14.1203 30.2939C14.2286 30.3737 13.9351 30.1384 13.885 30.0935C13.7627 29.9846 13.6445 29.8705 13.5315 29.7523C13.4325 29.6486 13.3446 29.5339 13.245 29.4314C13.1349 29.3178 13.2613 29.4599 13.2764 29.4797C13.2263 29.4151 13.1786 29.3481 13.132 29.2811C12.9683 29.0464 12.8198 28.8007 12.6876 28.5462C12.6644 28.5013 12.4902 28.1414 12.5496 28.2719C12.609 28.4017 12.464 28.0471 12.4425 27.9842C12.3411 27.6942 12.2602 27.3972 12.199 27.0961C12.1833 27.0192 12.1257 26.6086 12.1612 26.9289C12.1478 26.8066 12.135 26.6849 12.1268 26.562C12.107 26.2557 12.1082 25.9482 12.1309 25.6425C12.1391 25.5307 12.2043 25.1999 12.1449 25.4724C12.1763 25.3292 12.1973 25.1842 12.2311 25.0409C12.305 24.7252 12.4046 24.4201 12.5164 24.1167C12.5217 24.1021 12.6026 23.9047 12.5421 24.0479C12.4757 24.2046 12.5851 23.9577 12.6015 23.9233C12.6568 23.8063 12.7144 23.691 12.775 23.5762C12.9264 23.2891 13.0941 23.0107 13.2741 22.7411C13.3585 22.6147 13.4459 22.4901 13.5356 22.3678C13.574 22.3154 13.613 22.263 13.6526 22.2112C13.5059 22.4033 13.6433 22.2257 13.6719 22.1914C13.8815 21.9415 14.0923 21.6946 14.316 21.4576C14.7155 21.0342 15.14 20.6353 15.5867 20.2625C15.6979 20.1694 15.8115 20.0791 15.925 19.9882C15.7224 20.1507 16.0176 19.9207 16.0829 19.8729C16.3344 19.6895 16.5913 19.5142 16.8533 19.3465C17.3425 19.0332 17.8492 18.7472 18.3704 18.4904C18.6307 18.3617 18.8945 18.2394 19.1624 18.1264C18.9365 18.2219 19.198 18.1148 19.2836 18.0816C19.4385 18.021 19.594 17.9633 19.7506 17.9074C20.3179 17.7059 20.8967 17.5371 21.4832 17.4008C21.7458 17.3396 22.0102 17.2855 22.2758 17.2383C22.4185 17.2127 22.5629 17.1935 22.7056 17.1678C22.9251 17.1282 22.4755 17.1929 22.6968 17.1678C22.7795 17.1585 22.8617 17.148 22.9438 17.1387C23.5413 17.0735 24.1434 17.0432 24.7445 17.049C25.2837 17.0543 25.823 17.0886 26.3588 17.1533C27.1013 17.243 27.8141 16.4346 27.7827 15.7294C27.7448 14.8814 27.1543 14.401 26.3588 14.3055H26.3582Z" fill="#FFEDF1"/>
</svg>
