<svg width="18" height="18" viewBox="0 0 18 18" fill="none" xmlns="http://www.w3.org/2000/svg">
<path d="M8.54237 2.28814V0.457627C8.54237 0.336257 8.59059 0.219858 8.67641 0.134036C8.76223 0.0482142 8.87863 0 9 0C9.12137 0 9.23777 0.0482142 9.32359 0.134036C9.40941 0.219858 9.45763 0.336257 9.45763 0.457627V2.28814C9.45763 2.40951 9.40941 2.52591 9.32359 2.61173C9.23777 2.69755 9.12137 2.74576 9 2.74576C8.87863 2.74576 8.76223 2.69755 8.67641 2.61173C8.59059 2.52591 8.54237 2.40951 8.54237 2.28814ZM13.7288 9C13.7288 9.93527 13.4515 10.8495 12.9319 11.6272C12.4123 12.4048 11.6737 13.0109 10.8096 13.3689C9.94556 13.7268 8.99475 13.8204 8.07745 13.638C7.16015 13.4555 6.31756 13.0051 5.65622 12.3438C4.99489 11.6824 4.54451 10.8398 4.36205 9.92255C4.17959 9.00525 4.27323 8.05444 4.63115 7.19036C4.98906 6.32628 5.59516 5.58774 6.37281 5.06813C7.15046 4.54853 8.06473 4.27119 9 4.27119C10.2537 4.2726 11.4557 4.77127 12.3422 5.65778C13.2287 6.5443 13.7274 7.74627 13.7288 9ZM12.8136 9C12.8136 8.24575 12.5899 7.50844 12.1709 6.8813C11.7518 6.25416 11.1562 5.76537 10.4594 5.47673C9.76255 5.18809 8.99577 5.11257 8.25601 5.25972C7.51625 5.40686 6.83674 5.77007 6.30341 6.30341C5.77007 6.83674 5.40686 7.51625 5.25972 8.25601C5.11257 8.99577 5.18809 9.76255 5.47673 10.4594C5.76537 11.1562 6.25416 11.7518 6.8813 12.1709C7.50844 12.5899 8.24575 12.8136 9 12.8136C10.011 12.8123 10.9803 12.4102 11.6953 11.6953C12.4102 10.9803 12.8123 10.011 12.8136 9ZM3.79525 4.44203C3.83715 4.487 3.88767 4.52306 3.94381 4.54807C3.99994 4.57308 4.06054 4.58653 4.12199 4.58762C4.18343 4.5887 4.24447 4.5774 4.30145 4.55438C4.35843 4.53136 4.41019 4.49711 4.45365 4.45365C4.49711 4.41019 4.53136 4.35843 4.55438 4.30145C4.5774 4.24447 4.5887 4.18343 4.58762 4.12199C4.58653 4.06054 4.57308 3.99994 4.54807 3.94381C4.52306 3.88767 4.487 3.83715 4.44203 3.79525L3.22169 2.57492C3.13494 2.49408 3.0202 2.45007 2.90165 2.45216C2.78309 2.45426 2.66997 2.50228 2.58613 2.58613C2.50228 2.66997 2.45426 2.78309 2.45216 2.90165C2.45007 3.0202 2.49408 3.13494 2.57492 3.22169L3.79525 4.44203ZM3.79525 13.558L2.57492 14.7783C2.52995 14.8202 2.49389 14.8707 2.46888 14.9269C2.44387 14.983 2.43042 15.0436 2.42933 15.105C2.42825 15.1665 2.43955 15.2275 2.46257 15.2845C2.48559 15.3415 2.51984 15.3932 2.5633 15.4367C2.60675 15.4802 2.65852 15.5144 2.7155 15.5374C2.77248 15.5604 2.83352 15.5717 2.89496 15.5707C2.95641 15.5696 3.01701 15.5561 3.07314 15.5311C3.12928 15.5061 3.1798 15.47 3.22169 15.4251L4.44203 14.2047C4.487 14.1629 4.52306 14.1123 4.54807 14.0562C4.57308 14.0001 4.58653 13.9395 4.58762 13.878C4.5887 13.8166 4.5774 13.7555 4.55438 13.6986C4.53136 13.6416 4.49711 13.5898 4.45365 13.5463C4.41019 13.5029 4.35843 13.4686 4.30145 13.4456C4.24447 13.4226 4.18343 13.4113 4.12199 13.4124C4.06054 13.4135 3.99994 13.4269 3.94381 13.4519C3.88767 13.4769 3.83715 13.513 3.79525 13.558ZM13.8814 4.57627C14.0027 4.57616 14.119 4.52788 14.2047 4.44203L15.4251 3.22169C15.5059 3.13494 15.5499 3.0202 15.5478 2.90165C15.5457 2.78309 15.4977 2.66997 15.4139 2.58613C15.33 2.50228 15.2169 2.45426 15.0984 2.45216C14.9798 2.45007 14.8651 2.49408 14.7783 2.57492L13.558 3.79525C13.494 3.85925 13.4505 3.94076 13.4329 4.02948C13.4153 4.11819 13.4243 4.21014 13.4589 4.29372C13.4935 4.37729 13.5521 4.44873 13.6273 4.49902C13.7025 4.54931 13.7909 4.57619 13.8814 4.57627ZM14.2047 13.558C14.118 13.4771 14.0033 13.4331 13.8847 13.4352C13.7661 13.4373 13.653 13.4853 13.5692 13.5692C13.4853 13.653 13.4373 13.7661 13.4352 13.8847C13.4331 14.0033 13.4771 14.118 13.558 14.2047L14.7783 15.4251C14.8651 15.5059 14.9798 15.5499 15.0984 15.5478C15.2169 15.5457 15.33 15.4977 15.4139 15.4139C15.4977 15.33 15.5457 15.2169 15.5478 15.0984C15.5499 14.9798 15.5059 14.8651 15.4251 14.7783L14.2047 13.558ZM2.74576 9C2.74576 8.87863 2.69755 8.76223 2.61173 8.67641C2.52591 8.59059 2.40951 8.54237 2.28814 8.54237H0.457627C0.336257 8.54237 0.219858 8.59059 0.134036 8.67641C0.0482142 8.76223 0 8.87863 0 9C0 9.12137 0.0482142 9.23777 0.134036 9.32359C0.219858 9.40941 0.336257 9.45763 0.457627 9.45763H2.28814C2.40951 9.45763 2.52591 9.40941 2.61173 9.32359C2.69755 9.23777 2.74576 9.12137 2.74576 9ZM9 15.2542C8.87863 15.2542 8.76223 15.3025 8.67641 15.3883C8.59059 15.4741 8.54237 15.5905 8.54237 15.7119V17.5424C8.54237 17.6637 8.59059 17.7801 8.67641 17.866C8.76223 17.9518 8.87863 18 9 18C9.12137 18 9.23777 17.9518 9.32359 17.866C9.40941 17.7801 9.45763 17.6637 9.45763 17.5424V15.7119C9.45763 15.5905 9.40941 15.4741 9.32359 15.3883C9.23777 15.3025 9.12137 15.2542 9 15.2542ZM17.5424 8.54237H15.7119C15.5905 8.54237 15.4741 8.59059 15.3883 8.67641C15.3025 8.76223 15.2542 8.87863 15.2542 9C15.2542 9.12137 15.3025 9.23777 15.3883 9.32359C15.4741 9.40941 15.5905 9.45763 15.7119 9.45763H17.5424C17.6637 9.45763 17.7801 9.40941 17.866 9.32359C17.9518 9.23777 18 9.12137 18 9C18 8.87863 17.9518 8.76223 17.866 8.67641C17.7801 8.59059 17.6637 8.54237 17.5424 8.54237Z" fill="#FDFDFD"/>
</svg>
